<svg width="804" height="1293" viewBox="0 0 804 1293" fill="currentColor" xmlns="http://www.w3.org/2000/svg">
<path d="M0 21.5467C0 9.64683 9.64678 0 21.5467 0H129.472C200.872 0 258.752 57.8807 258.752 129.28V1271.25C258.752 1283.15 249.106 1292.8 237.206 1292.8H21.5467C9.64679 1292.8 0 1283.15 0 1271.25V21.5467Z" fill="currentColor"/>
<path d="M299.924 659.328V1024.99L783.974 541.298C824.718 500.584 795.883 430.934 738.283 430.934H555.25C538.114 430.934 521.68 437.737 509.559 449.849L299.924 659.328Z" fill="currentColor"/>
<path d="M509.559 1273.89L309.324 1073.8L492.29 890.969L783.974 1182.44C824.718 1223.15 795.883 1292.8 738.283 1292.8H555.25C538.114 1292.8 521.68 1286 509.559 1273.89Z" fill="currentColor"/>
</svg>
