<svg width="4997" height="1616" viewBox="0 0 4997 1616" fill="currentColor" xmlns="http://www.w3.org/2000/svg">
<path d="M0 21.5467C0 9.64683 9.64678 0 21.5467 0H129.472C200.872 0 258.752 57.8807 258.752 129.28V1271.25C258.752 1283.15 249.106 1292.8 237.206 1292.8H21.5467C9.64679 1292.8 0 1283.15 0 1271.25V21.5467Z" fill="currentColor"/>
<path d="M726.356 861.865C726.356 1099.86 919.291 1292.8 1157.29 1292.8H1288.47V1034.24H1157.29C1062.09 1034.24 984.916 957.065 984.916 861.865C984.916 766.666 1062.09 689.492 1157.29 689.492H1286.57C1310.37 689.492 1329.66 708.786 1329.66 732.585V1292.8H1536.51C1538.3 1292.8 1540.06 1292.71 1541.8 1292.53C1563.9 1290.29 1581.88 1274.13 1586.85 1252.96C1587.75 1249.15 1588.22 1245.17 1588.22 1241.09V538.665C1588.22 479.166 1539.99 430.932 1480.49 430.932H1157.29C919.291 430.932 726.356 623.867 726.356 861.865Z" fill="currentColor"/>
<path d="M2937.98 1292.8C3175.98 1292.8 3368.91 1099.86 3368.91 861.866C3368.91 623.868 3175.98 430.933 2937.98 430.933H2613.84C2554.34 430.933 2506.11 479.167 2506.11 538.666V1508.27C2506.11 1567.77 2554.34 1616 2613.84 1616H2764.67V1292.8H2765.61V732.586C2765.61 708.787 2784.9 689.493 2808.7 689.493H2937.04C3032.24 689.493 3109.42 766.667 3109.42 861.866H3110.35C3110.35 957.066 3033.18 1034.24 2937.98 1034.24H2806.8V1292.8H2937.98Z" fill="currentColor"/>
<path d="M4509.95 430.934C4545.65 430.934 4574.59 459.874 4574.59 495.574V1228.16C4574.59 1263.86 4545.65 1292.8 4509.95 1292.8H4380.67C4344.97 1292.8 4316.03 1263.86 4316.03 1228.16V495.574C4316.03 459.874 4344.97 430.934 4380.67 430.934H4509.95Z" fill="currentColor"/>
<path d="M4615.77 750.063V495.573C4615.77 480.84 4612.75 466.81 4607.31 454.065C4651.11 439.071 4698.09 430.933 4746.97 430.933C4828.64 430.933 4905 453.653 4970.09 493.119C4997.66 509.84 5003.88 545.958 4987.39 573.673L4927.93 673.613C4904.97 712.199 4848.47 715.444 4806.32 699.984C4787.81 693.197 4767.82 689.493 4746.97 689.493C4694.43 689.493 4647.38 712.997 4615.77 750.063Z" fill="currentColor"/>
<path d="M2400.11 762.753C2441.8 762.753 2472.65 723.579 2455.58 685.55C2388.2 535.462 2237.43 430.934 2062.25 430.934C1824.25 430.934 1631.32 623.869 1631.32 861.867C1631.32 1099.87 1824.25 1292.8 2062.25 1292.8C2239.31 1292.8 2391.42 1186.02 2457.71 1033.35C2474.21 995.368 2443.37 956.673 2401.96 956.673H2241.03C2219.31 956.673 2199.63 968.221 2184.29 983.6C2153.09 1014.88 2109.93 1034.24 2062.25 1034.24C1967.05 1034.24 1889.88 957.066 1889.88 861.867C1889.88 766.668 1967.05 689.494 2062.25 689.494C2108.5 689.494 2150.5 707.709 2181.46 737.358C2196.65 751.905 2215.81 762.753 2236.84 762.753H2400.11Z" fill="currentColor"/>
<path d="M299.924 659.328V1024.99L783.974 541.298C824.718 500.584 795.883 430.934 738.283 430.934H555.25C538.114 430.934 521.68 437.737 509.559 449.849L299.924 659.328Z" fill="currentColor"/>
<path d="M509.559 1273.89L309.324 1073.8L492.29 890.969L783.974 1182.44C824.718 1223.15 795.883 1292.8 738.283 1292.8H555.25C538.114 1292.8 521.68 1286 509.559 1273.89Z" fill="currentColor"/>
<path d="M4010.05 842.346C4010.05 860.291 4004.78 877.872 3998.41 892.571C3991.27 909.049 4002.62 930.773 4020.58 930.773H4206.53C4232.46 930.773 4256.27 915.39 4264.18 890.697C4269.92 872.798 4273.03 859.108 4272.93 854.995C4272.91 848.589 4272.71 844.793 4272.4 838.775L4272.32 837.311C4271.96 830.411 4271.75 827.069 4271.17 820.522C4251.25 595.043 4045.38 430.933 3842.01 430.933C3719.95 430.933 3609.75 481.673 3531.35 563.211C3526.81 567.928 3522.38 572.748 3518.06 577.667C3512.59 583.899 3507.3 590.29 3502.19 596.832C3445.09 669.931 3411.07 761.926 3411.07 861.866C3411.07 1099.86 3604.01 1292.8 3842.01 1292.8L4048.85 1292.8C4120.25 1292.8 4178.13 1234.92 4178.13 1163.52V1098.88C4178.13 1063.18 4149.19 1034.24 4113.49 1034.24L3842.01 1034.24C3834.36 1034.24 3826.84 1033.74 3819.46 1032.78C3816.82 1032.43 3813.94 1031.99 3811.34 1031.52C3808.74 1031.05 3806.16 1030.53 3803.61 1029.95C3798.49 1028.78 3793.46 1027.39 3788.53 1025.79C3719.51 1003.28 3669.63 938.4 3669.63 861.866C3669.63 766.667 3746.81 689.493 3842.01 689.493C3937.2 689.493 4010.05 758.442 4010.05 842.346Z" fill="currentColor"/>
</svg>
